<svg width="100" height="100" viewBox="0 0 100 100" fill="none" xmlns="http://www.w3.org/2000/svg">
<path fill-rule="evenodd" clip-rule="evenodd" d="M50.0002 91.6666C73.0127 91.6666 91.6668 73.0124 91.6668 49.9999C91.6668 26.9874 73.0127 8.33325 50.0002 8.33325C26.9877 8.33325 8.3335 26.9874 8.3335 49.9999C8.3335 73.0124 26.9877 91.6666 50.0002 91.6666ZM58.4585 35.2916C59.0437 35.8775 59.3724 36.6718 59.3724 37.4999C59.3724 38.328 59.0437 39.1223 58.4585 39.7083L48.1668 49.9999L58.4585 60.2916C58.7655 60.5777 59.0118 60.9227 59.1826 61.306C59.3534 61.6893 59.4452 62.1032 59.4526 62.5227C59.46 62.9423 59.3829 63.3591 59.2257 63.7482C59.0685 64.1374 58.8346 64.4908 58.5378 64.7876C58.2411 65.0843 57.8876 65.3183 57.4985 65.4754C57.1094 65.6326 56.6926 65.7098 56.273 65.7024C55.8534 65.695 55.4396 65.6031 55.0563 65.4323C54.6729 65.2615 54.3279 65.0153 54.0418 64.7083L41.5418 52.2083C40.9566 51.6223 40.6279 50.828 40.6279 49.9999C40.6279 49.1718 40.9566 48.3775 41.5418 47.7916L54.0418 35.2916C54.6278 34.7064 55.422 34.3777 56.2502 34.3777C57.0783 34.3777 57.8726 34.7064 58.4585 35.2916Z" fill="url(#paint0_linear_1_119)"/>
<defs>
<linearGradient id="paint0_linear_1_119" x1="8.3335" y1="26.5765" x2="58.3833" y2="26.9975" gradientUnits="userSpaceOnUse">
<stop stop-color="#AB5BFB"/>
<stop offset="1" stop-color="#7690EA"/>
</linearGradient>
</defs>
</svg>
