<svg width="100" height="100" viewBox="0 0 100 100" fill="none" xmlns="http://www.w3.org/2000/svg">
<path fill-rule="evenodd" clip-rule="evenodd" d="M49.9998 8.33341C26.9873 8.33341 8.33315 26.9876 8.33316 50.0001C8.33316 73.0126 26.9873 91.6668 49.9998 91.6668C73.0123 91.6667 91.6665 73.0126 91.6665 50.0001C91.6665 26.9876 73.0123 8.33341 49.9998 8.33341ZM41.5415 64.7084C40.9563 64.1225 40.6276 63.3282 40.6276 62.5001C40.6276 61.672 40.9563 60.8777 41.5415 60.2918L51.8332 50.0001L41.5415 39.7084C41.2345 39.4223 40.9882 39.0773 40.8174 38.694C40.6466 38.3107 40.5548 37.8969 40.5474 37.4773C40.54 37.0577 40.6171 36.6409 40.7743 36.2518C40.9315 35.8626 41.1654 35.5092 41.4622 35.2124C41.7589 34.9157 42.1124 34.6817 42.5015 34.5246C42.8906 34.3674 43.3074 34.2902 43.727 34.2976C44.1466 34.305 44.5604 34.3969 44.9437 34.5677C45.3271 34.7385 45.6721 34.9847 45.9582 35.2917L58.4582 47.7917C59.0434 48.3777 59.3721 49.172 59.3721 50.0001C59.3721 50.8282 59.0434 51.6225 58.4582 52.2084L45.9582 64.7084C45.3722 65.2936 44.578 65.6223 43.7498 65.6223C42.9217 65.6223 42.1274 65.2936 41.5415 64.7084Z" fill="url(#paint0_linear_1_121)"/>
<defs>
<linearGradient id="paint0_linear_1_121" x1="91.6665" y1="73.4235" x2="41.6167" y2="73.0025" gradientUnits="userSpaceOnUse">
<stop stop-color="#8F909E"/>
<stop offset="1" stop-color="#8F909E"/>
</linearGradient>
</defs>
</svg>
