<?xml version="1.0" standalone="no"?>
<!DOCTYPE svg PUBLIC "-//W3C//DTD SVG 20010904//EN"
 "http://www.w3.org/TR/2001/REC-SVG-20010904/DTD/svg10.dtd">
<svg version="1.0" xmlns="http://www.w3.org/2000/svg"
 width="90pt" height="90pt" viewBox="0 0 512.000000 512.000000"
 preserveAspectRatio="xMidYMid meet">

<g transform="translate(0.000000,512.000000) scale(0.100000,-0.100000)"
fill="#6640ff" stroke="none">
<path d="M828 4784 c-47 -25 -60 -66 -70 -218 -28 -465 -144 -809 -301 -893
-76 -41 -93 -73 -101 -190 -7 -100 4 -228 25 -305 18 -68 52 -126 128 -221 81
-101 132 -195 156 -288 21 -80 34 -102 78 -123 31 -14 101 -16 672 -16 569 0
641 2 671 16 39 19 58 48 75 120 20 84 75 185 154 284 42 52 83 108 92 124 52
99 79 277 64 429 -10 104 -25 130 -96 168 -61 32 -96 74 -145 169 -86 171
-141 415 -160 721 -11 165 -21 195 -75 224 -24 14 -51 16 -123 14 -88 -4 -93
-5 -124 -37 l-33 -32 -5 -423 c-4 -362 -7 -427 -21 -457 -75 -161 -250 -227
-407 -153 -50 24 -110 86 -136 142 -20 44 -21 63 -26 469 l-5 424 -37 34 c-37
34 -39 34 -130 34 -63 -1 -102 -6 -120 -16z m180 -97 c8 -9 12 -150 14 -428
l3 -414 32 -61 c43 -82 113 -150 193 -188 59 -28 74 -31 160 -31 75 1 107 5
153 24 81 32 168 115 209 199 l33 67 3 409 c2 275 6 414 14 423 14 17 112 17
125 1 6 -7 14 -69 17 -137 21 -359 107 -683 229 -854 40 -56 75 -86 153 -133
17 -10 19 -25 19 -155 0 -195 -18 -250 -120 -378 -41 -50 -86 -112 -101 -136
l-26 -45 -703 0 -703 0 -30 48 c-16 27 -59 84 -95 128 -79 98 -94 127 -113
212 -18 85 -19 292 -1 314 6 8 29 25 49 37 182 108 311 480 343 986 4 61 9
113 12 118 8 13 120 8 131 -6z m1062 -1948 c0 -5 -5 -30 -11 -55 l-11 -44
-634 0 c-708 0 -635 -8 -650 73 l-6 37 656 0 c454 0 656 -3 656 -11z"/>
<path d="M2926 4777 c-59 -33 -73 -67 -101 -233 -13 -82 -44 -229 -69 -326
-69 -273 -96 -532 -96 -919 0 -345 26 -600 82 -809 17 -63 39 -145 49 -182 29
-109 42 -293 35 -503 -8 -254 -19 -350 -92 -825 -18 -118 -29 -392 -20 -482 8
-76 32 -120 86 -156 34 -23 39 -23 250 -20 207 3 216 4 248 26 46 33 61 69 82
192 33 185 40 315 38 615 l-3 290 47 245 c108 566 182 1156 209 1663 10 196
24 284 45 280 21 -3 34 -85 44 -270 27 -526 111 -1184 222 -1745 l32 -163 1
-355 c1 -220 6 -384 13 -430 41 -257 56 -296 123 -330 34 -18 59 -20 242 -20
195 0 205 1 237 23 77 52 89 94 90 297 0 152 -17 326 -50 516 -44 256 -63 470
-64 729 0 275 8 350 62 525 69 222 91 403 99 786 9 450 -15 714 -88 1002 -22
86 -53 232 -69 324 -32 183 -44 215 -92 250 l-33 23 -760 2 -760 3 -39 -23z
m1533 -94 c16 -13 25 -37 33 -91 6 -42 7 -77 2 -82 -11 -10 -384 -37 -619 -45
-265 -8 -899 23 -935 45 -20 12 8 157 34 175 17 13 127 15 742 15 673 0 723
-1 743 -17z m-1309 -305 c86 -8 293 -13 570 -13 396 0 534 6 758 32 48 5 52 4
52 -15 0 -11 20 -98 44 -194 24 -95 51 -227 60 -293 39 -306 44 -763 11 -1060
-19 -168 -38 -267 -76 -389 -17 -55 -37 -131 -46 -170 -21 -101 -29 -498 -13
-683 10 -130 23 -225 85 -640 19 -131 29 -327 20 -418 -11 -117 -7 -115 -225
-115 -217 0 -210 -4 -233 126 -32 175 -38 268 -35 577 l2 312 -42 220 c-124
663 -192 1208 -221 1776 -9 185 -25 237 -91 312 -43 49 -69 48 -114 -5 -61
-70 -77 -130 -87 -323 -28 -552 -95 -1093 -215 -1738 -51 -277 -59 -372 -45
-562 14 -179 5 -342 -29 -543 -27 -159 -17 -152 -235 -152 -220 0 -219 0 -229
127 -9 119 8 339 44 563 64 401 86 699 70 947 -10 167 -26 256 -71 401 -97
315 -124 911 -64 1412 12 98 86 446 111 519 3 10 17 12 57 8 28 -4 113 -12
187 -19z"/>
<path d="M609 1981 c-53 -11 -102 -45 -126 -88 -31 -56 -87 -321 -118 -556
-21 -164 -22 -845 -1 -885 19 -36 65 -78 99 -91 39 -15 715 -15 754 0 34 12
80 55 98 89 7 14 16 54 20 90 9 85 32 174 57 223 18 36 21 38 32 21 29 -43 52
-127 66 -240 12 -96 43 -147 103 -175 39 -17 70 -19 395 -19 332 0 355 1 391
20 47 23 77 60 92 109 8 26 10 157 6 417 -5 413 -13 499 -78 799 -34 155 -49
198 -82 233 -56 60 -9 57 -877 59 -437 0 -811 -2 -831 -6z m1629 -121 c21 -20
42 -77 42 -117 l0 -23 -870 0 -870 0 6 28 c18 82 27 103 47 117 19 13 118 15
822 15 787 0 802 0 823 -20z m81 -288 c5 -27 20 -113 32 -193 20 -128 23 -184
23 -511 l1 -367 -23 -23 c-22 -23 -24 -23 -352 -26 -417 -4 -387 -15 -410 151
-18 126 -62 234 -121 302 -41 46 -67 45 -111 -3 -63 -70 -110 -195 -124 -333
-3 -36 -11 -72 -18 -80 -26 -37 -49 -39 -381 -39 l-327 0 -29 29 -29 29 0 315
c0 173 5 361 10 418 11 102 45 327 56 362 5 16 57 17 899 17 l893 0 11 -48z"/>
</g>
</svg>
