<svg width="25" height="26" viewBox="0 0 25 26" fill="none" xmlns="http://www.w3.org/2000/svg">
<g id="Frame">
<path id="Vector" d="M17.3125 3.82495C18.683 3.82495 20.0014 4.36148 20.9713 5.32419C21.9423 6.28488 22.485 7.58064 22.485 8.93714V16.9344C22.485 19.7588 20.165 22.0466 17.3125 22.0466H7.21589C4.36341 22.0466 2.04443 19.7588 2.04443 16.9344V8.93714C2.04443 6.11278 4.35319 3.82495 7.21589 3.82495H17.3125ZM18.4684 9.08899C18.2538 9.07786 18.0494 9.14973 17.895 9.29145L13.2867 12.9358C12.6939 13.4227 11.8446 13.4227 11.2427 12.9358L6.64355 9.29145C6.3257 9.05862 5.88623 9.08899 5.62153 9.36232C5.34558 9.63564 5.31492 10.0709 5.54896 10.3746L5.68285 10.5062L10.3331 14.1C10.9054 14.5454 11.5994 14.7883 12.326 14.7883C13.0506 14.7883 13.7569 14.5454 14.3282 14.1L18.9385 10.4455L19.0203 10.3645C19.2646 10.0709 19.2646 9.64576 19.0091 9.35219C18.867 9.20136 18.6718 9.10924 18.4684 9.08899Z" fill="#6640FF"/>
</g>
</svg>
