<?xml version="1.0" encoding="UTF-8"?>
<!DOCTYPE svg PUBLIC "-//W3C//DTD SVG 1.1//EN" "http://www.w3.org/Graphics/SVG/1.1/DTD/svg11.dtd">
<svg xmlns="http://www.w3.org/2000/svg" version="1.1" width="640px" height="65px" style="shape-rendering:geometricPrecision; text-rendering:geometricPrecision; image-rendering:optimizeQuality; fill-rule:evenodd; clip-rule:evenodd" xmlns:xlink="http://www.w3.org/1999/xlink">
<g><path style="opacity:1" fill="#572ff6" d="M 121.5,-0.5 C 142.167,-0.5 162.833,-0.5 183.5,-0.5C 192.648,0.656457 201.981,1.32312 211.5,1.5C 217.288,2.80988 223.288,3.47655 229.5,3.5C 234.29,4.7249 239.29,5.39156 244.5,5.5C 276.964,11.3282 309.298,18.3282 341.5,26.5C 345.921,28.1015 350.588,29.1015 355.5,29.5C 356.919,30.4511 358.585,30.7845 360.5,30.5C 363.589,31.7846 366.922,32.4512 370.5,32.5C 380.552,35.1191 390.885,36.7858 401.5,37.5C 406.616,38.8063 411.949,39.473 417.5,39.5C 424.289,40.8754 431.289,41.5421 438.5,41.5C 479.428,44.7192 520.428,43.8858 561.5,39C 573.458,37.6761 585.125,35.5095 596.5,32.5C 598.415,32.7845 600.081,32.4511 601.5,31.5C 613.995,29.5518 625.995,26.2184 637.5,21.5C 638.167,21.5 638.833,21.5 639.5,21.5C 639.5,35.8333 639.5,50.1667 639.5,64.5C 426.167,64.5 212.833,64.5 -0.5,64.5C -0.5,50.1667 -0.5,35.8333 -0.5,21.5C 27.6922,12.5967 56.3589,6.2634 85.5,2.5C 97.6769,1.84646 109.677,0.846456 121.5,-0.5 Z"/></g>
<g><path style="opacity:0.011" fill="#3c7efd" d="M 211.5,1.5 C 214.304,0.362156 217.304,0.195489 220.5,1C 217.518,1.49796 214.518,1.66463 211.5,1.5 Z"/></g>
<g><path style="opacity:0.01" fill="#3d7cfd" d="M 85.5,2.5 C 83.1432,2.66331 80.8098,2.49665 78.5,2C 81.0385,1.20419 83.3718,1.37086 85.5,2.5 Z"/></g>
<g><path style="opacity:0.01" fill="#3485fe" d="M 229.5,2.5 C 226.813,2.66409 224.146,2.49742 221.5,2C 224.367,1.19927 227.034,1.36594 229.5,2.5 Z"/></g>
<g><path style="opacity:0.011" fill="#3d7cfd" d="M 229.5,3.5 C 229.5,3.16667 229.5,2.83333 229.5,2.5C 238.833,2.83333 238.833,3.16667 229.5,3.5 Z"/></g>
<g><path style="opacity:0.01" fill="#3585ff" d="M 58.5,5.5 C 59.9464,4.38705 61.6131,4.22039 63.5,5C 61.8659,5.49351 60.1992,5.66018 58.5,5.5 Z"/></g>
<g><path style="opacity:0.011" fill="#3f7bfd" d="M 244.5,5.5 C 246.288,4.37753 248.288,4.21086 250.5,5C 248.527,5.49546 246.527,5.66212 244.5,5.5 Z"/></g>
<g><path style="opacity:0.009" fill="#3486fe" d="M 52.5,6.5 C 53.9464,5.38705 55.6131,5.22039 57.5,6C 55.8659,6.49351 54.1992,6.66018 52.5,6.5 Z"/></g>
<g><path style="opacity:0.01" fill="#3485fe" d="M 251.5,6.5 C 252.946,5.38705 254.613,5.22039 256.5,6C 254.866,6.49351 253.199,6.66018 251.5,6.5 Z"/></g>
<g><path style="opacity:0.01" fill="#3485fe" d="M 257.5,7.5 C 258.946,6.38705 260.613,6.22039 262.5,7C 260.866,7.49351 259.199,7.66018 257.5,7.5 Z"/></g>
<g><path style="opacity:0.009" fill="#3486ff" d="M 263.5,8.5 C 264.946,7.38705 266.613,7.22039 268.5,8C 266.866,8.49351 265.199,8.66018 263.5,8.5 Z"/></g>
<g><path style="opacity:0.01" fill="#3585ff" d="M 7.5,17.5 C 7.89657,16.475 8.56323,16.3083 9.5,17C 8.90558,17.4643 8.23891,17.631 7.5,17.5 Z"/></g>
<g><path style="opacity:0.008" fill="#3585fe" d="M 639.5,19.5 C 639.5,19.8333 639.5,20.1667 639.5,20.5C 638.83,20.0187 638.83,19.6853 639.5,19.5 Z"/></g>
<g><path style="opacity:1" fill="#5251f9" d="M 637.5,21.5 C 636.761,21.631 636.094,21.4643 635.5,21C 636.437,20.3083 637.103,20.475 637.5,21.5 Z"/></g>
<g><path style="opacity:0.01" fill="#3485fe" d="M 632.5,22.5 C 632.897,21.475 633.563,21.3083 634.5,22C 633.906,22.4643 633.239,22.631 632.5,22.5 Z"/></g>
<g><path style="opacity:0.01" fill="#4176fd" d="M 341.5,26.5 C 342.601,25.4017 343.934,25.235 345.5,26C 344.207,26.49 342.873,26.6567 341.5,26.5 Z"/></g>
<g><path style="opacity:0.009" fill="#4277fd" d="M 355.5,29.5 C 356.601,28.4017 357.934,28.235 359.5,29C 358.207,29.49 356.873,29.6567 355.5,29.5 Z"/></g>
<g><path style="opacity:0.009" fill="#4176fd" d="M 360.5,30.5 C 361.601,29.4017 362.934,29.235 364.5,30C 363.207,30.49 361.873,30.6567 360.5,30.5 Z"/></g>
<g><path style="opacity:0.009" fill="#3485fe" d="M 601.5,30.5 C 602.601,29.4017 603.934,29.235 605.5,30C 604.207,30.49 602.873,30.6567 601.5,30.5 Z"/></g>
<g><path style="opacity:0.01" fill="#4176fd" d="M 601.5,30.5 C 601.5,30.8333 601.5,31.1667 601.5,31.5C 596.167,31.1667 596.167,30.8333 601.5,30.5 Z"/></g>
<g><path style="opacity:0.011" fill="#4079fd" d="M 370.5,32.5 C 371.946,31.3871 373.613,31.2204 375.5,32C 373.866,32.4935 372.199,32.6602 370.5,32.5 Z"/></g>
<g><path style="opacity:0.009" fill="#4277fd" d="M 596.5,32.5 C 595.127,32.6567 593.793,32.49 592.5,32C 594.066,31.235 595.399,31.4017 596.5,32.5 Z"/></g>
<g><path style="opacity:0.01" fill="#3486ff" d="M 376.5,33.5 C 377.946,32.3871 379.613,32.2204 381.5,33C 379.866,33.4935 378.199,33.6602 376.5,33.5 Z"/></g>
<g><path style="opacity:0.011" fill="#3486ff" d="M 575.5,35.5 C 576.946,34.3871 578.613,34.2204 580.5,35C 578.866,35.4935 577.199,35.6602 575.5,35.5 Z"/></g>
<g><path style="opacity:0.01" fill="#3485fe" d="M 568.5,36.5 C 570.288,35.3775 572.288,35.2109 574.5,36C 572.527,36.4955 570.527,36.6621 568.5,36.5 Z"/></g>
<g><path style="opacity:0.011" fill="#3d7cfd" d="M 401.5,37.5 C 403.628,36.3709 405.961,36.2042 408.5,37C 406.19,37.4966 403.857,37.6633 401.5,37.5 Z"/></g>
<g><path style="opacity:0.011" fill="#3b7efe" d="M 417.5,39.5 C 420.304,38.3622 423.304,38.1955 426.5,39C 423.518,39.498 420.518,39.6646 417.5,39.5 Z"/></g>
<g><path style="opacity:0.01" fill="#3981fe" d="M 438.5,41.5 C 443.316,40.3503 448.316,40.1837 453.5,41C 448.511,41.4993 443.511,41.6659 438.5,41.5 Z"/></g>
</svg>
