<?xml version="1.0" encoding="iso-8859-1"?>
<!-- Uploaded to: SVG Repo, www.svgrepo.com, Generator: SVG Repo Mixer Tools -->
<svg fill="#000000" height="800px" width="800px" version="1.1" id="Capa_1" xmlns="http://www.w3.org/2000/svg" xmlns:xlink="http://www.w3.org/1999/xlink" 
	 viewBox="0 0 461.968 461.968" xml:space="preserve">
<path id="XMLID_443_" d="M302.413,21.126c-3.515-3.515-3.515-9.214,0-12.729c3.515-3.514,9.213-3.514,12.728,0l7.048,7.048
	l7.047-7.048c3.515-3.514,9.214-3.513,12.728,0c3.515,3.515,3.515,9.214,0,12.729l-7.047,7.047l7.046,7.046
	c3.515,3.515,3.515,9.214,0,12.729c-1.758,1.757-4.061,2.636-6.364,2.636s-4.606-0.879-6.364-2.636l-7.047-7.047l-7.046,7.047
	c-3.514,3.515-9.212,3.514-12.728,0c-3.515-3.515-3.515-9.214,0-12.729l7.046-7.046L302.413,21.126z M340.96,85.249
	c-2.785,4.117-1.705,9.712,2.413,12.497l1.777,1.202c1.546,1.045,3.299,1.546,5.034,1.546c2.888,0,5.724-1.387,7.463-3.959
	c2.785-4.117,1.705-9.712-2.413-12.497l-1.777-1.202C349.338,80.052,343.745,81.132,340.96,85.249z M157.557,379.435h-2.434
	c-4.971,0-9,4.029-9,9s4.029,9,9,9h2.434c4.971,0,9-4.029,9-9S162.528,379.435,157.557,379.435z M410.621,73.188l7.048,7.048
	l-7.046,7.046c-3.515,3.516-3.514,9.214,0,12.729c1.757,1.757,4.061,2.636,6.364,2.636s4.607-0.879,6.364-2.636l7.046-7.047
	l7.046,7.047c3.516,3.514,9.215,3.514,12.728,0c3.515-3.515,3.515-9.213,0-12.729l-7.046-7.046l7.048-7.048
	c3.515-3.516,3.514-9.214,0-12.729c-3.515-3.514-9.213-3.514-12.728,0l-7.047,7.048l-7.048-7.048c-3.514-3.513-9.213-3.514-12.728,0
	C407.107,63.975,407.107,69.674,410.621,73.188z M389.776,170.425c1.221,0.563,2.503,0.83,3.765,0.83
	c3.402,0,6.659-1.939,8.178-5.23l11.745-25.45c2.083-4.514,0.112-9.86-4.4-11.943c-4.514-2.083-9.861-0.111-11.943,4.4
	l-11.745,25.45C383.292,162.995,385.263,168.342,389.776,170.425z M399.585,21.448c1.736,0,3.491-0.502,5.037-1.548l1.776-1.202
	c4.116-2.786,5.194-8.382,2.408-12.498c-2.787-4.116-8.383-5.194-12.498-2.408l-1.776,1.202c-4.116,2.786-5.194,8.382-2.408,12.498
	C393.864,20.062,396.699,21.448,399.585,21.448z M401.142,257.547c1.983,4.371,0.186,9.529-4.083,11.723l-152.642,78.432
	c-4.421,2.274-9.847,0.53-12.118-3.892c-2.272-4.421-0.529-9.847,3.892-12.118l145.018-74.515l-44.214-97.469L57.683,270.321
	c-15.703,6.218-27.992,18.654-34.604,35.021c-4.64,11.484-6.098,23.969-4.403,36.045c0.042,0.061,0.082,0.122,0.123,0.185
	c7.585,11.728,22.304,18.688,40.382,19.099c4.969,0.113,8.906,4.233,8.793,9.202s-4.222,8.872-9.202,8.794
	c-9.634-0.219-18.622-1.938-26.636-4.992c8.053,10.559,19.088,18.787,31.723,23.408c4.668,1.707,7.069,6.875,5.362,11.543
	c-1.334,3.648-4.782,5.911-8.454,5.912c-1.026,0-2.07-0.178-3.09-0.55c-22.057-8.065-40.243-24.897-49.895-46.18
	c-9.867-21.751-10.375-46.977-1.393-69.208c8.476-20.979,24.339-36.966,44.667-45.015l21.667-8.58l-10.367-22.853
	c-0.986-2.174-1.068-4.65-0.228-6.885c0.84-2.234,2.533-4.043,4.707-5.029l16.871-7.652c-5.916-10.427-15.855-18.028-27.762-20.93
	c-4.83-1.177-7.79-6.046-6.613-10.875s6.047-7.793,10.875-6.613c17.338,4.226,31.718,15.517,39.943,30.96l16.716-7.582
	c4.525-2.053,9.86-0.049,11.914,4.479l11.837,26.094l197.722-78.302c4.462-1.767,9.527,0.278,11.51,4.65L401.142,257.547z
	 M123.859,224.754l-7.756-17.098l-33.636,15.257l7.012,15.456L123.859,224.754z M450.635,252.203L448.858,251
	c-4.116-2.787-9.711-1.71-12.498,2.406c-2.787,4.115-1.71,9.711,2.406,12.498l1.777,1.203c1.546,1.047,3.301,1.549,5.038,1.549
	c2.886,0,5.721-1.386,7.46-3.955C455.828,260.586,454.75,254.99,450.635,252.203z M227.63,388.435
	c0,39.309-31.98,71.288-71.29,71.288c-39.308,0-71.288-31.979-71.288-71.288s31.979-71.289,71.288-71.289
	C195.649,317.146,227.63,349.127,227.63,388.435z M209.63,388.435c0-29.384-23.906-53.289-53.29-53.289
	c-29.383,0-53.288,23.905-53.288,53.289c0,29.383,23.905,53.288,53.288,53.288C185.724,441.724,209.63,417.818,209.63,388.435z
	 M460.773,151.777c-2.472-4.312-7.972-5.803-12.285-3.33l-26.333,15.102c-4.312,2.473-5.803,7.973-3.33,12.285
	c1.663,2.9,4.696,4.524,7.815,4.524c1.518,0,3.058-0.386,4.469-1.194l26.333-15.102C461.755,161.59,463.246,156.09,460.773,151.777z
	 M220.528,318.976c1.384,0,2.79-0.32,4.106-0.997l123.918-63.671c4.421-2.271,6.164-7.697,3.892-12.118
	c-2.272-4.42-7.697-6.165-12.119-3.892L216.408,301.97c-4.421,2.271-6.164,7.697-3.892,12.118
	C214.111,317.192,217.262,318.976,220.528,318.976z M443.819,218.233c4.252,0,8.034-3.026,8.838-7.358
	c0.908-4.887-2.318-9.584-7.205-10.492l-30.832-5.729c-4.89-0.91-9.585,2.317-10.493,7.204c-0.908,4.888,2.317,9.585,7.205,10.493
	l30.832,5.729C442.72,218.184,443.273,218.233,443.819,218.233z"/>
</svg>