<?xml version="1.0" standalone="no"?>
<!DOCTYPE svg PUBLIC "-//W3C//DTD SVG 20010904//EN"
 "http://www.w3.org/TR/2001/REC-SVG-20010904/DTD/svg10.dtd">
<svg version="1.0" xmlns="http://www.w3.org/2000/svg"
 width="90pt" height="90pt" viewBox="0 0 512.000000 512.000000"
 preserveAspectRatio="xMidYMid meet">

<g transform="translate(0.000000,512.000000) scale(0.100000,-0.100000)"
fill="#ffc961" stroke="none">
<path d="M1534 4706 c-232 -95 -446 -186 -475 -202 -41 -21 -173 -147 -556
-528 -336 -334 -503 -507 -503 -521 0 -13 130 -150 383 -403 293 -293 388
-382 406 -382 19 0 71 46 208 182 181 180 183 182 183 148 0 -46 -39 -670 -46
-737 l-5 -53 -505 0 c-560 0 -538 2 -591 -67 l-28 -36 0 -772 0 -772 28 -36
c53 -70 23 -67 665 -67 l579 0 34 23 c60 40 79 80 79 163 l0 74 390 0 390 0 0
-50 0 -50 -43 0 c-23 0 -53 -7 -65 -16 -21 -15 -22 -21 -22 -173 0 -140 2
-160 18 -174 16 -14 43 -17 170 -17 139 0 154 2 172 20 14 14 20 33 20 65 l0
45 350 0 350 0 0 -49 c0 -79 6 -81 189 -81 109 0 161 4 169 12 7 7 12 36 12
65 l0 53 355 0 355 0 0 -53 c0 -29 5 -58 12 -65 17 -17 329 -17 346 0 8 8 12
61 12 174 0 157 -1 163 -22 178 -12 9 -42 16 -65 16 l-43 0 0 350 0 350 46 0
c85 0 84 -2 84 184 0 187 0 186 -80 194 l-50 5 0 348 0 349 53 0 c29 0 58 5
65 12 8 8 12 61 12 173 0 112 -4 165 -12 173 -7 7 -29 12 -50 12 -21 0 -38 3
-38 8 0 4 146 153 325 332 242 242 325 331 325 348 0 18 -109 133 -432 459
-476 479 -547 544 -646 596 -37 19 -250 110 -473 201 l-407 166 -603 0 -604
-1 -421 -173z m1566 -19 c0 -117 -15 -190 -60 -282 -75 -157 -228 -269 -403
-297 -225 -35 -457 89 -557 297 -45 92 -60 165 -60 282 l0 83 540 0 540 0 0
-83z m-1178 -69 c4 -99 10 -136 30 -190 70 -187 206 -324 396 -396 61 -24 80
-26 212 -26 132 0 151 2 212 26 190 72 326 209 396 396 20 54 26 91 30 190 2
67 7 122 11 122 3 0 28 -8 55 -17 l49 -18 -6 -105 c-16 -321 -223 -584 -537
-682 -63 -19 -96 -23 -210 -23 -114 0 -147 4 -210 23 -315 99 -521 360 -537
682 l-6 105 44 17 c24 9 49 17 55 17 8 1 13 -39 16 -121z m-187 -193 c64 -226
234 -427 450 -532 135 -65 225 -85 375 -85 150 0 240 20 375 85 270 131 450
393 481 700 4 45 10 67 18 63 6 -2 119 -49 251 -104 381 -157 309 -106 735
-529 l375 -373 -327 -327 -328 -328 -109 109 -109 108 -7 147 c-4 80 -11 156
-16 168 -12 33 -56 41 -82 15 l-20 -21 27 -413 c15 -227 28 -425 30 -440 l3
-28 -184 0 -183 0 0 53 c0 29 -5 58 -12 65 -7 7 -36 12 -65 12 l-53 0 0 248
c0 240 -1 250 -23 292 -16 30 -37 51 -67 67 l-43 23 -667 0 -667 0 -43 -23
c-30 -16 -51 -37 -67 -67 l-23 -43 0 -671 0 -671 23 -40 c13 -22 40 -49 62
-62 36 -21 53 -23 183 -23 l142 0 0 -49 0 -48 -52 -5 c-75 -8 -78 -15 -78
-192 0 -177 4 -186 82 -186 l48 0 0 -245 0 -245 -390 0 -390 0 0 631 c0 618 0
632 -21 668 -23 42 -75 81 -107 81 -18 0 -22 6 -22 33 0 17 18 298 40 622 22
325 40 607 40 627 0 58 -42 86 -85 54 -16 -11 -20 -36 -28 -174 l-10 -161
-109 -108 -108 -108 -328 328 -327 327 375 373 c427 425 353 372 745 533 l250
103 12 -87 c6 -47 19 -113 28 -147z m-1155 -1180 l325 -325 -60 -60 -60 -60
-327 327 -328 328 57 57 c32 32 60 58 63 58 3 0 151 -146 330 -325z m4353 267
l57 -57 -328 -328 -327 -327 -60 60 -60 60 325 325 c179 179 327 325 330 325
3 0 31 -26 63 -58z m-1701 -239 c16 -15 18 -36 18 -260 l0 -243 -53 0 c-29 0
-58 -5 -65 -12 -7 -7 -12 -36 -12 -65 l0 -53 -350 0 -350 0 0 43 c0 23 -7 53
-16 65 -15 21 -21 22 -174 22 -131 0 -161 -3 -174 -16 -13 -13 -16 -43 -16
-169 0 -179 3 -185 81 -185 l49 0 0 -245 0 -245 -138 0 c-94 0 -142 4 -150 12
-9 9 -12 172 -12 672 0 600 2 661 17 678 15 17 49 18 671 18 596 0 657 -2 674
-17z m970 -570 l-4 -63 -117 0 -118 0 -6 83 c-4 45 -9 134 -13 197 l-6 115
134 -135 134 -135 -4 -62z m-1892 -118 l0 -85 -80 0 -80 0 0 85 0 85 80 0 80
0 0 -85z m1078 3 l-3 -83 -77 -3 -78 -3 0 86 0 85 80 0 81 0 -3 -82z m1077 -3
l0 -80 -80 0 -80 0 -3 69 c-4 99 -5 97 85 94 l78 -3 0 -80z m-265 -108 c6 -67
16 -77 83 -77 l47 0 0 -349 0 -348 -50 -5 c-80 -8 -80 -7 -80 -194 0 -186 -1
-184 84 -184 l46 0 0 -350 0 -350 -43 0 c-66 0 -87 -20 -87 -86 l0 -54 -355 0
-355 0 0 54 c0 84 -5 86 -178 86 -182 0 -192 -5 -192 -86 l0 -54 -350 0 -350
0 0 50 c0 68 -22 90 -90 90 l-50 0 0 48 0 49 838 -5 c620 -4 847 -2 873 7 58
19 101 72 110 133 13 88 11 1283 -2 1333 -11 42 -48 86 -101 120 -12 8 -17 37
-22 123 l-7 113 113 -3 113 -3 5 -58z m-1080 7 c0 -71 11 -84 75 -84 l55 0 0
-44 0 -45 -312 -3 c-347 -3 -353 -4 -400 -70 -21 -30 -23 -45 -26 -180 l-3
-148 -115 0 -114 0 0 245 0 245 54 0 c66 0 86 21 86 87 l0 43 350 0 350 0 0
-46z m744 4 c3 -24 7 -73 9 -110 l5 -68 -259 0 -259 0 0 45 0 45 53 0 c29 0
58 5 65 12 7 7 12 36 12 65 l0 53 184 0 185 0 5 -42z m116 -308 c19 -19 20
-33 20 -366 0 -260 -3 -343 -12 -338 -131 81 -246 144 -264 144 -13 0 -58 -29
-108 -70 l-85 -70 -199 115 c-110 63 -206 115 -214 115 -8 0 -124 -86 -259
-191 l-244 -191 -3 119 c-1 65 -1 254 0 421 3 287 4 304 22 318 17 12 125 14
673 14 640 0 653 0 673 -20z m-2724 -78 c25 -16 34 -55 34 -141 l0 -91 -590 0
-590 0 0 102 c0 80 3 105 17 120 15 17 46 18 567 18 303 0 556 -4 562 -8z
m1254 -787 l0 -485 -115 0 -115 0 0 245 0 245 54 0 c81 0 86 11 86 188 0 138
-1 144 -25 167 -18 19 -35 25 -70 25 l-45 0 0 50 0 50 115 0 115 0 0 -485z
m-1220 -130 l0 -576 -25 -24 -24 -25 -543 0 c-476 0 -546 2 -566 16 l-22 15 0
585 0 584 590 0 590 0 0 -575z m1020 325 l0 -80 -80 0 -80 0 0 80 0 80 80 0
80 0 0 -80z m1285 -188 l400 -229 3 -109 c2 -60 0 -118 -2 -130 -11 -43 -25
-44 -695 -44 -631 0 -639 0 -665 21 l-26 20 0 169 0 169 256 200 255 201 37
-20 c20 -10 217 -122 437 -248z m875 188 l0 -80 -85 0 -85 0 0 80 0 80 85 0
85 0 0 -80z m-597 -90 l127 -75 0 -62 c0 -35 -2 -63 -5 -63 -7 0 -316 176
-339 193 -17 13 -16 16 25 51 24 20 48 35 54 34 6 -2 68 -37 138 -78z m-1563
-990 l0 -80 -80 0 -80 0 0 80 0 80 80 0 80 0 0 -80z m1080 0 l0 -80 -80 0 -80
0 0 80 0 80 80 0 80 0 0 -80z m1080 0 l0 -80 -85 0 -85 0 0 80 0 80 85 0 85 0
0 -80z"/>
<path d="M2307 4642 c-14 -15 -17 -42 -17 -156 0 -76 5 -146 10 -157 10 -18
24 -19 260 -19 236 0 250 1 260 19 5 11 10 82 10 159 0 122 -2 141 -18 155
-16 15 -49 17 -254 17 -215 0 -236 -2 -251 -18z m413 -162 l0 -70 -160 0 -160
0 0 70 0 70 160 0 160 0 0 -70z"/>
<path d="M3389 2072 c-91 -47 -125 -152 -79 -247 85 -175 350 -111 350 85 0
84 -48 151 -129 178 -52 18 -84 15 -142 -16z m132 -95 c19 -15 39 -50 39 -71
0 -8 -12 -28 -26 -45 -48 -58 -137 -26 -137 49 0 61 77 103 124 67z"/>
<path d="M407 1632 c-9 -10 -17 -26 -17 -35 0 -13 -9 -17 -43 -17 -54 0 -87
-22 -87 -59 0 -39 17 -51 75 -51 49 0 51 -1 60 -32 8 -27 16 -34 41 -36 35 -3
64 18 64 49 0 18 10 19 305 19 l305 0 16 25 c20 30 10 63 -23 76 -13 5 -153 9
-311 9 l-287 0 -15 33 c-18 39 -57 48 -83 19z"/>
<path d="M847 1282 c-10 -10 -17 -26 -17 -35 0 -15 -24 -17 -263 -17 -221 0
-266 -2 -285 -16 -28 -20 -30 -69 -3 -84 12 -6 121 -10 285 -10 256 0 266 -1
266 -19 0 -31 29 -52 64 -49 25 2 33 9 41 36 l9 32 83 0 c73 0 83 2 97 22 21
30 20 44 -4 68 -17 17 -33 20 -100 20 -71 0 -80 2 -80 18 0 24 -31 52 -57 52
-11 0 -27 -8 -36 -18z"/>
<path d="M480 930 c-11 -11 -20 -27 -20 -35 0 -12 -15 -15 -78 -15 -91 0 -122
-15 -122 -60 0 -40 23 -50 118 -50 l80 0 6 -30 c8 -42 46 -59 81 -36 15 10 25
26 25 41 l0 25 270 0 270 0 15 24 c20 30 7 62 -31 76 -14 6 -138 10 -275 10
-235 0 -249 1 -249 18 0 23 -30 52 -53 52 -9 0 -26 -9 -37 -20z"/>
</g>
</svg>
